%TF.GenerationSoftware,KiCad,Pcbnew,(5.1.6-0-10_14)*%
%TF.CreationDate,2020-06-15T14:29:28-04:00*%
%TF.ProjectId,preamp,70726561-6d70-42e6-9b69-6361645f7063,rev?*%
%TF.SameCoordinates,Original*%
%TF.FileFunction,Legend,Top*%
%TF.FilePolarity,Positive*%
%FSLAX46Y46*%
G04 Gerber Fmt 4.6, Leading zero omitted, Abs format (unit mm)*
G04 Created by KiCad (PCBNEW (5.1.6-0-10_14)) date 2020-06-15 14:29:28*
%MOMM*%
%LPD*%
G01*
G04 APERTURE LIST*
%ADD10C,0.120000*%
%ADD11C,0.127000*%
%ADD12C,4.064000*%
%ADD13R,1.100000X1.100000*%
%ADD14R,0.900000X1.000000*%
%ADD15C,0.100000*%
%ADD16R,1.000000X1.400000*%
%ADD17R,1.000000X0.900000*%
%ADD18C,0.900000*%
G04 APERTURE END LIST*
D10*
%TO.C,REF\u002A\u002A*%
X121173600Y-93573600D02*
G75*
G03*
X121173600Y-93573600I-2200000J0D01*
G01*
X135473800Y-93573600D02*
G75*
G03*
X135473800Y-93573600I-2200000J0D01*
G01*
X121173600Y-103098600D02*
G75*
G03*
X121173600Y-103098600I-2200000J0D01*
G01*
X135473800Y-103098600D02*
G75*
G03*
X135473800Y-103098600I-2200000J0D01*
G01*
%TO.C,J1*%
X116762300Y-96988400D02*
X118162300Y-96988400D01*
X118162300Y-96988400D02*
X118162300Y-98388400D01*
X118162300Y-98388400D02*
X116762300Y-98388400D01*
X116762300Y-98388400D02*
X116762300Y-96988400D01*
%TO.C,D1*%
X121214000Y-98173000D02*
X120284000Y-98173000D01*
X118054000Y-98173000D02*
X118984000Y-98173000D01*
X118054000Y-98173000D02*
X118054000Y-100333000D01*
X121214000Y-98173000D02*
X121214000Y-99633000D01*
%TO.C,U1*%
X129598000Y-94226000D02*
X130908000Y-94226000D01*
X130908000Y-94226000D02*
X130908000Y-96946000D01*
X126418000Y-98086000D02*
X126418000Y-96946000D01*
X126188000Y-94226000D02*
X127498000Y-94226000D01*
X126188000Y-96946000D02*
X126188000Y-94226000D01*
X126188000Y-96946000D02*
X126418000Y-96946000D01*
X130908000Y-96946000D02*
X130678000Y-96946000D01*
%TO.C,C2*%
X124851279Y-98198400D02*
X124525721Y-98198400D01*
X124851279Y-97178400D02*
X124525721Y-97178400D01*
%TO.C,C4*%
X132776279Y-98198400D02*
X132450721Y-98198400D01*
X132776279Y-97178400D02*
X132450721Y-97178400D01*
%TO.C,L2*%
X121858721Y-97178400D02*
X122184279Y-97178400D01*
X121858721Y-98198400D02*
X122184279Y-98198400D01*
%TO.C,C6*%
X133233479Y-100535200D02*
X132907921Y-100535200D01*
X133233479Y-99515200D02*
X132907921Y-99515200D01*
%TO.C,J2*%
X134097800Y-96988400D02*
X135497800Y-96988400D01*
X135497800Y-96988400D02*
X135497800Y-98388400D01*
X135497800Y-98388400D02*
X134097800Y-98388400D01*
X134097800Y-98388400D02*
X134097800Y-96988400D01*
%TO.C,L1*%
X131215200Y-100283778D02*
X131215200Y-99766622D01*
X129795200Y-100283778D02*
X129795200Y-99766622D01*
%TO.C,U2*%
X127018000Y-100919200D02*
X127018000Y-101849200D01*
X127018000Y-104079200D02*
X127018000Y-103149200D01*
X127018000Y-104079200D02*
X129178000Y-104079200D01*
X127018000Y-100919200D02*
X128478000Y-100919200D01*
%TO.C,J3*%
X125436400Y-103897200D02*
X126836400Y-103897200D01*
X126836400Y-103897200D02*
X126836400Y-105297200D01*
X126836400Y-105297200D02*
X125436400Y-105297200D01*
X125436400Y-105297200D02*
X125436400Y-103897200D01*
%TO.C,C8*%
X125935200Y-101432479D02*
X125935200Y-101106921D01*
X124915200Y-101432479D02*
X124915200Y-101106921D01*
%TO.C,C9*%
X130913600Y-103240721D02*
X130913600Y-103566279D01*
X129893600Y-103240721D02*
X129893600Y-103566279D01*
%TO.C,D2*%
X124598800Y-101508800D02*
X124598800Y-104658800D01*
X122898800Y-101508800D02*
X122898800Y-104658800D01*
X124598800Y-101508800D02*
X122898800Y-101508800D01*
%TO.C,C1*%
D11*
X117968485Y-96168633D02*
X117998723Y-96198871D01*
X118028961Y-96289585D01*
X118028961Y-96350061D01*
X117998723Y-96440776D01*
X117938247Y-96501252D01*
X117877771Y-96531490D01*
X117756819Y-96561728D01*
X117666104Y-96561728D01*
X117545152Y-96531490D01*
X117484676Y-96501252D01*
X117424200Y-96440776D01*
X117393961Y-96350061D01*
X117393961Y-96289585D01*
X117424200Y-96198871D01*
X117454438Y-96168633D01*
X118028961Y-95563871D02*
X118028961Y-95926728D01*
X118028961Y-95745300D02*
X117393961Y-95745300D01*
X117484676Y-95805776D01*
X117545152Y-95866252D01*
X117575390Y-95926728D01*
%TO.C,C3*%
X125321785Y-99165833D02*
X125352023Y-99196071D01*
X125382261Y-99286785D01*
X125382261Y-99347261D01*
X125352023Y-99437976D01*
X125291547Y-99498452D01*
X125231071Y-99528690D01*
X125110119Y-99558928D01*
X125019404Y-99558928D01*
X124898452Y-99528690D01*
X124837976Y-99498452D01*
X124777500Y-99437976D01*
X124747261Y-99347261D01*
X124747261Y-99286785D01*
X124777500Y-99196071D01*
X124807738Y-99165833D01*
X124747261Y-98954166D02*
X124747261Y-98561071D01*
X124989166Y-98772738D01*
X124989166Y-98682023D01*
X125019404Y-98621547D01*
X125049642Y-98591309D01*
X125110119Y-98561071D01*
X125261309Y-98561071D01*
X125321785Y-98591309D01*
X125352023Y-98621547D01*
X125382261Y-98682023D01*
X125382261Y-98863452D01*
X125352023Y-98923928D01*
X125321785Y-98954166D01*
%TO.C,C7*%
X121991966Y-100163085D02*
X121961728Y-100193323D01*
X121871014Y-100223561D01*
X121810538Y-100223561D01*
X121719823Y-100193323D01*
X121659347Y-100132847D01*
X121629109Y-100072371D01*
X121598871Y-99951419D01*
X121598871Y-99860704D01*
X121629109Y-99739752D01*
X121659347Y-99679276D01*
X121719823Y-99618800D01*
X121810538Y-99588561D01*
X121871014Y-99588561D01*
X121961728Y-99618800D01*
X121991966Y-99649038D01*
X122203633Y-99588561D02*
X122626966Y-99588561D01*
X122354823Y-100223561D01*
%TO.C,D1*%
X117482861Y-100281290D02*
X116847861Y-100281290D01*
X116847861Y-100130100D01*
X116878100Y-100039385D01*
X116938576Y-99978909D01*
X116999052Y-99948671D01*
X117120004Y-99918433D01*
X117210719Y-99918433D01*
X117331671Y-99948671D01*
X117392147Y-99978909D01*
X117452623Y-100039385D01*
X117482861Y-100130100D01*
X117482861Y-100281290D01*
X117482861Y-99313671D02*
X117482861Y-99676528D01*
X117482861Y-99495100D02*
X116847861Y-99495100D01*
X116938576Y-99555576D01*
X116999052Y-99616052D01*
X117029290Y-99676528D01*
%TO.C,U1*%
X125318761Y-95289309D02*
X125832809Y-95289309D01*
X125893285Y-95259071D01*
X125923523Y-95228833D01*
X125953761Y-95168357D01*
X125953761Y-95047404D01*
X125923523Y-94986928D01*
X125893285Y-94956690D01*
X125832809Y-94926452D01*
X125318761Y-94926452D01*
X125953761Y-94291452D02*
X125953761Y-94654309D01*
X125953761Y-94472880D02*
X125318761Y-94472880D01*
X125409476Y-94533357D01*
X125469952Y-94593833D01*
X125500190Y-94654309D01*
%TO.C,C2*%
X123846166Y-96810285D02*
X123815928Y-96840523D01*
X123725214Y-96870761D01*
X123664738Y-96870761D01*
X123574023Y-96840523D01*
X123513547Y-96780047D01*
X123483309Y-96719571D01*
X123453071Y-96598619D01*
X123453071Y-96507904D01*
X123483309Y-96386952D01*
X123513547Y-96326476D01*
X123574023Y-96266000D01*
X123664738Y-96235761D01*
X123725214Y-96235761D01*
X123815928Y-96266000D01*
X123846166Y-96296238D01*
X124088071Y-96296238D02*
X124118309Y-96266000D01*
X124178785Y-96235761D01*
X124329976Y-96235761D01*
X124390452Y-96266000D01*
X124420690Y-96296238D01*
X124450928Y-96356714D01*
X124450928Y-96417190D01*
X124420690Y-96507904D01*
X124057833Y-96870761D01*
X124450928Y-96870761D01*
%TO.C,C4*%
X131758266Y-96746785D02*
X131728028Y-96777023D01*
X131637314Y-96807261D01*
X131576838Y-96807261D01*
X131486123Y-96777023D01*
X131425647Y-96716547D01*
X131395409Y-96656071D01*
X131365171Y-96535119D01*
X131365171Y-96444404D01*
X131395409Y-96323452D01*
X131425647Y-96262976D01*
X131486123Y-96202500D01*
X131576838Y-96172261D01*
X131637314Y-96172261D01*
X131728028Y-96202500D01*
X131758266Y-96232738D01*
X132302552Y-96383928D02*
X132302552Y-96807261D01*
X132151361Y-96142023D02*
X132000171Y-96595595D01*
X132393266Y-96595595D01*
%TO.C,L2*%
X121750666Y-96807261D02*
X121448285Y-96807261D01*
X121448285Y-96172261D01*
X121932095Y-96232738D02*
X121962333Y-96202500D01*
X122022809Y-96172261D01*
X122174000Y-96172261D01*
X122234476Y-96202500D01*
X122264714Y-96232738D01*
X122294952Y-96293214D01*
X122294952Y-96353690D01*
X122264714Y-96444404D01*
X121901857Y-96807261D01*
X122294952Y-96807261D01*
%TO.C,C6*%
X133371166Y-99159785D02*
X133340928Y-99190023D01*
X133250214Y-99220261D01*
X133189738Y-99220261D01*
X133099023Y-99190023D01*
X133038547Y-99129547D01*
X133008309Y-99069071D01*
X132978071Y-98948119D01*
X132978071Y-98857404D01*
X133008309Y-98736452D01*
X133038547Y-98675976D01*
X133099023Y-98615500D01*
X133189738Y-98585261D01*
X133250214Y-98585261D01*
X133340928Y-98615500D01*
X133371166Y-98645738D01*
X133915452Y-98585261D02*
X133794500Y-98585261D01*
X133734023Y-98615500D01*
X133703785Y-98645738D01*
X133643309Y-98736452D01*
X133613071Y-98857404D01*
X133613071Y-99099309D01*
X133643309Y-99159785D01*
X133673547Y-99190023D01*
X133734023Y-99220261D01*
X133854976Y-99220261D01*
X133915452Y-99190023D01*
X133945690Y-99159785D01*
X133975928Y-99099309D01*
X133975928Y-98948119D01*
X133945690Y-98887642D01*
X133915452Y-98857404D01*
X133854976Y-98827166D01*
X133734023Y-98827166D01*
X133673547Y-98857404D01*
X133643309Y-98887642D01*
X133613071Y-98948119D01*
%TO.C,L1*%
X131538738Y-98954166D02*
X131538738Y-98651785D01*
X132173738Y-98651785D01*
X131538738Y-99498452D02*
X131538738Y-99135595D01*
X131538738Y-99317023D02*
X132173738Y-99317023D01*
X132083023Y-99256547D01*
X132022547Y-99196071D01*
X131992309Y-99135595D01*
%TO.C,U2*%
X127405190Y-104300261D02*
X127405190Y-104814309D01*
X127435428Y-104874785D01*
X127465666Y-104905023D01*
X127526142Y-104935261D01*
X127647095Y-104935261D01*
X127707571Y-104905023D01*
X127737809Y-104874785D01*
X127768047Y-104814309D01*
X127768047Y-104300261D01*
X128040190Y-104360738D02*
X128070428Y-104330500D01*
X128130904Y-104300261D01*
X128282095Y-104300261D01*
X128342571Y-104330500D01*
X128372809Y-104360738D01*
X128403047Y-104421214D01*
X128403047Y-104481690D01*
X128372809Y-104572404D01*
X128009952Y-104935261D01*
X128403047Y-104935261D01*
%TO.C,C8*%
X124559785Y-100816833D02*
X124590023Y-100847071D01*
X124620261Y-100937785D01*
X124620261Y-100998261D01*
X124590023Y-101088976D01*
X124529547Y-101149452D01*
X124469071Y-101179690D01*
X124348119Y-101209928D01*
X124257404Y-101209928D01*
X124136452Y-101179690D01*
X124075976Y-101149452D01*
X124015500Y-101088976D01*
X123985261Y-100998261D01*
X123985261Y-100937785D01*
X124015500Y-100847071D01*
X124045738Y-100816833D01*
X124257404Y-100453976D02*
X124227166Y-100514452D01*
X124196928Y-100544690D01*
X124136452Y-100574928D01*
X124106214Y-100574928D01*
X124045738Y-100544690D01*
X124015500Y-100514452D01*
X123985261Y-100453976D01*
X123985261Y-100333023D01*
X124015500Y-100272547D01*
X124045738Y-100242309D01*
X124106214Y-100212071D01*
X124136452Y-100212071D01*
X124196928Y-100242309D01*
X124227166Y-100272547D01*
X124257404Y-100333023D01*
X124257404Y-100453976D01*
X124287642Y-100514452D01*
X124317880Y-100544690D01*
X124378357Y-100574928D01*
X124499309Y-100574928D01*
X124559785Y-100544690D01*
X124590023Y-100514452D01*
X124620261Y-100453976D01*
X124620261Y-100333023D01*
X124590023Y-100272547D01*
X124559785Y-100242309D01*
X124499309Y-100212071D01*
X124378357Y-100212071D01*
X124317880Y-100242309D01*
X124287642Y-100272547D01*
X124257404Y-100333023D01*
%TO.C,C9*%
X129053166Y-102715785D02*
X129022928Y-102746023D01*
X128932214Y-102776261D01*
X128871738Y-102776261D01*
X128781023Y-102746023D01*
X128720547Y-102685547D01*
X128690309Y-102625071D01*
X128660071Y-102504119D01*
X128660071Y-102413404D01*
X128690309Y-102292452D01*
X128720547Y-102231976D01*
X128781023Y-102171500D01*
X128871738Y-102141261D01*
X128932214Y-102141261D01*
X129022928Y-102171500D01*
X129053166Y-102201738D01*
X129355547Y-102776261D02*
X129476500Y-102776261D01*
X129536976Y-102746023D01*
X129567214Y-102715785D01*
X129627690Y-102625071D01*
X129657928Y-102504119D01*
X129657928Y-102262214D01*
X129627690Y-102201738D01*
X129597452Y-102171500D01*
X129536976Y-102141261D01*
X129416023Y-102141261D01*
X129355547Y-102171500D01*
X129325309Y-102201738D01*
X129295071Y-102262214D01*
X129295071Y-102413404D01*
X129325309Y-102473880D01*
X129355547Y-102504119D01*
X129416023Y-102534357D01*
X129536976Y-102534357D01*
X129597452Y-102504119D01*
X129627690Y-102473880D01*
X129657928Y-102413404D01*
%TO.C,D2*%
X122588261Y-103338690D02*
X121953261Y-103338690D01*
X121953261Y-103187500D01*
X121983500Y-103096785D01*
X122043976Y-103036309D01*
X122104452Y-103006071D01*
X122225404Y-102975833D01*
X122316119Y-102975833D01*
X122437071Y-103006071D01*
X122497547Y-103036309D01*
X122558023Y-103096785D01*
X122588261Y-103187500D01*
X122588261Y-103338690D01*
X122013738Y-102733928D02*
X121983500Y-102703690D01*
X121953261Y-102643214D01*
X121953261Y-102492023D01*
X121983500Y-102431547D01*
X122013738Y-102401309D01*
X122074214Y-102371071D01*
X122134690Y-102371071D01*
X122225404Y-102401309D01*
X122588261Y-102764166D01*
X122588261Y-102371071D01*
%TD*%
%LPC*%
D12*
%TO.C,REF\u002A\u002A*%
X118973600Y-93573600D03*
%TD*%
%TO.C,REF\u002A\u002A*%
X133273800Y-93573600D03*
%TD*%
%TO.C,REF\u002A\u002A*%
X118973600Y-103098600D03*
%TD*%
%TO.C,REF\u002A\u002A*%
X133273800Y-103098600D03*
%TD*%
D13*
%TO.C,J1*%
X117462300Y-97688400D03*
%TD*%
%TO.C,C1*%
G36*
G01*
X118879000Y-96872900D02*
X118484000Y-96872900D01*
G75*
G02*
X118311500Y-96700400I0J172500D01*
G01*
X118311500Y-96355400D01*
G75*
G02*
X118484000Y-96182900I172500J0D01*
G01*
X118879000Y-96182900D01*
G75*
G02*
X119051500Y-96355400I0J-172500D01*
G01*
X119051500Y-96700400D01*
G75*
G02*
X118879000Y-96872900I-172500J0D01*
G01*
G37*
G36*
G01*
X118879000Y-97842900D02*
X118484000Y-97842900D01*
G75*
G02*
X118311500Y-97670400I0J172500D01*
G01*
X118311500Y-97325400D01*
G75*
G02*
X118484000Y-97152900I172500J0D01*
G01*
X118879000Y-97152900D01*
G75*
G02*
X119051500Y-97325400I0J-172500D01*
G01*
X119051500Y-97670400D01*
G75*
G02*
X118879000Y-97842900I-172500J0D01*
G01*
G37*
%TD*%
%TO.C,C3*%
G36*
G01*
X126273400Y-98811700D02*
X126273400Y-99206700D01*
G75*
G02*
X126100900Y-99379200I-172500J0D01*
G01*
X125755900Y-99379200D01*
G75*
G02*
X125583400Y-99206700I0J172500D01*
G01*
X125583400Y-98811700D01*
G75*
G02*
X125755900Y-98639200I172500J0D01*
G01*
X126100900Y-98639200D01*
G75*
G02*
X126273400Y-98811700I0J-172500D01*
G01*
G37*
G36*
G01*
X127243400Y-98811700D02*
X127243400Y-99206700D01*
G75*
G02*
X127070900Y-99379200I-172500J0D01*
G01*
X126725900Y-99379200D01*
G75*
G02*
X126553400Y-99206700I0J172500D01*
G01*
X126553400Y-98811700D01*
G75*
G02*
X126725900Y-98639200I172500J0D01*
G01*
X127070900Y-98639200D01*
G75*
G02*
X127243400Y-98811700I0J-172500D01*
G01*
G37*
%TD*%
%TO.C,C5*%
G36*
G01*
X128641000Y-100324300D02*
X128641000Y-99929300D01*
G75*
G02*
X128813500Y-99756800I172500J0D01*
G01*
X129158500Y-99756800D01*
G75*
G02*
X129331000Y-99929300I0J-172500D01*
G01*
X129331000Y-100324300D01*
G75*
G02*
X129158500Y-100496800I-172500J0D01*
G01*
X128813500Y-100496800D01*
G75*
G02*
X128641000Y-100324300I0J172500D01*
G01*
G37*
G36*
G01*
X127671000Y-100324300D02*
X127671000Y-99929300D01*
G75*
G02*
X127843500Y-99756800I172500J0D01*
G01*
X128188500Y-99756800D01*
G75*
G02*
X128361000Y-99929300I0J-172500D01*
G01*
X128361000Y-100324300D01*
G75*
G02*
X128188500Y-100496800I-172500J0D01*
G01*
X127843500Y-100496800D01*
G75*
G02*
X127671000Y-100324300I0J172500D01*
G01*
G37*
%TD*%
%TO.C,C7*%
G36*
G01*
X121402000Y-101099000D02*
X121402000Y-100704000D01*
G75*
G02*
X121574500Y-100531500I172500J0D01*
G01*
X121919500Y-100531500D01*
G75*
G02*
X122092000Y-100704000I0J-172500D01*
G01*
X122092000Y-101099000D01*
G75*
G02*
X121919500Y-101271500I-172500J0D01*
G01*
X121574500Y-101271500D01*
G75*
G02*
X121402000Y-101099000I0J172500D01*
G01*
G37*
G36*
G01*
X120432000Y-101099000D02*
X120432000Y-100704000D01*
G75*
G02*
X120604500Y-100531500I172500J0D01*
G01*
X120949500Y-100531500D01*
G75*
G02*
X121122000Y-100704000I0J-172500D01*
G01*
X121122000Y-101099000D01*
G75*
G02*
X120949500Y-101271500I-172500J0D01*
G01*
X120604500Y-101271500D01*
G75*
G02*
X120432000Y-101099000I0J172500D01*
G01*
G37*
%TD*%
D14*
%TO.C,D1*%
X119634000Y-97933000D03*
X120584000Y-99933000D03*
X118684000Y-99933000D03*
%TD*%
%TO.C,R1*%
G36*
G01*
X128310200Y-98811700D02*
X128310200Y-99206700D01*
G75*
G02*
X128137700Y-99379200I-172500J0D01*
G01*
X127792700Y-99379200D01*
G75*
G02*
X127620200Y-99206700I0J172500D01*
G01*
X127620200Y-98811700D01*
G75*
G02*
X127792700Y-98639200I172500J0D01*
G01*
X128137700Y-98639200D01*
G75*
G02*
X128310200Y-98811700I0J-172500D01*
G01*
G37*
G36*
G01*
X129280200Y-98811700D02*
X129280200Y-99206700D01*
G75*
G02*
X129107700Y-99379200I-172500J0D01*
G01*
X128762700Y-99379200D01*
G75*
G02*
X128590200Y-99206700I0J172500D01*
G01*
X128590200Y-98811700D01*
G75*
G02*
X128762700Y-98639200I172500J0D01*
G01*
X129107700Y-98639200D01*
G75*
G02*
X129280200Y-98811700I0J-172500D01*
G01*
G37*
%TD*%
D15*
%TO.C,U1*%
G36*
X127609961Y-93576245D02*
G01*
X127612806Y-93566866D01*
X127617427Y-93558221D01*
X127623645Y-93550645D01*
X127631221Y-93544427D01*
X127639866Y-93539806D01*
X127649245Y-93536961D01*
X127659000Y-93536000D01*
X129437000Y-93536000D01*
X129446755Y-93536961D01*
X129456134Y-93539806D01*
X129464779Y-93544427D01*
X129472355Y-93550645D01*
X129478573Y-93558221D01*
X129483194Y-93566866D01*
X129486039Y-93576245D01*
X129487000Y-93586000D01*
X129487000Y-95670500D01*
X129486039Y-95680255D01*
X129483194Y-95689634D01*
X129478573Y-95698279D01*
X129472355Y-95705855D01*
X128979000Y-96199210D01*
X128979000Y-98186000D01*
X128978039Y-98195755D01*
X128975194Y-98205134D01*
X128970573Y-98213779D01*
X128964355Y-98221355D01*
X128956779Y-98227573D01*
X128948134Y-98232194D01*
X128938755Y-98235039D01*
X128929000Y-98236000D01*
X128167000Y-98236000D01*
X128157245Y-98235039D01*
X128147866Y-98232194D01*
X128139221Y-98227573D01*
X128131645Y-98221355D01*
X128125427Y-98213779D01*
X128120806Y-98205134D01*
X128117961Y-98195755D01*
X128117000Y-98186000D01*
X128117000Y-96199210D01*
X127623645Y-95705855D01*
X127617427Y-95698279D01*
X127612806Y-95689634D01*
X127609961Y-95680255D01*
X127609000Y-95670500D01*
X127609000Y-93586000D01*
X127609961Y-93576245D01*
G37*
D16*
X130048000Y-97536000D03*
X127048000Y-97536000D03*
%TD*%
%TO.C,C2*%
G36*
G01*
X124388500Y-97407150D02*
X124388500Y-97969650D01*
G75*
G02*
X124144750Y-98213400I-243750J0D01*
G01*
X123657250Y-98213400D01*
G75*
G02*
X123413500Y-97969650I0J243750D01*
G01*
X123413500Y-97407150D01*
G75*
G02*
X123657250Y-97163400I243750J0D01*
G01*
X124144750Y-97163400D01*
G75*
G02*
X124388500Y-97407150I0J-243750D01*
G01*
G37*
G36*
G01*
X125963500Y-97407150D02*
X125963500Y-97969650D01*
G75*
G02*
X125719750Y-98213400I-243750J0D01*
G01*
X125232250Y-98213400D01*
G75*
G02*
X124988500Y-97969650I0J243750D01*
G01*
X124988500Y-97407150D01*
G75*
G02*
X125232250Y-97163400I243750J0D01*
G01*
X125719750Y-97163400D01*
G75*
G02*
X125963500Y-97407150I0J-243750D01*
G01*
G37*
%TD*%
%TO.C,C4*%
G36*
G01*
X132313500Y-97407150D02*
X132313500Y-97969650D01*
G75*
G02*
X132069750Y-98213400I-243750J0D01*
G01*
X131582250Y-98213400D01*
G75*
G02*
X131338500Y-97969650I0J243750D01*
G01*
X131338500Y-97407150D01*
G75*
G02*
X131582250Y-97163400I243750J0D01*
G01*
X132069750Y-97163400D01*
G75*
G02*
X132313500Y-97407150I0J-243750D01*
G01*
G37*
G36*
G01*
X133888500Y-97407150D02*
X133888500Y-97969650D01*
G75*
G02*
X133644750Y-98213400I-243750J0D01*
G01*
X133157250Y-98213400D01*
G75*
G02*
X132913500Y-97969650I0J243750D01*
G01*
X132913500Y-97407150D01*
G75*
G02*
X133157250Y-97163400I243750J0D01*
G01*
X133644750Y-97163400D01*
G75*
G02*
X133888500Y-97407150I0J-243750D01*
G01*
G37*
%TD*%
%TO.C,L2*%
G36*
G01*
X122321500Y-97969650D02*
X122321500Y-97407150D01*
G75*
G02*
X122565250Y-97163400I243750J0D01*
G01*
X123052750Y-97163400D01*
G75*
G02*
X123296500Y-97407150I0J-243750D01*
G01*
X123296500Y-97969650D01*
G75*
G02*
X123052750Y-98213400I-243750J0D01*
G01*
X122565250Y-98213400D01*
G75*
G02*
X122321500Y-97969650I0J243750D01*
G01*
G37*
G36*
G01*
X120746500Y-97969650D02*
X120746500Y-97407150D01*
G75*
G02*
X120990250Y-97163400I243750J0D01*
G01*
X121477750Y-97163400D01*
G75*
G02*
X121721500Y-97407150I0J-243750D01*
G01*
X121721500Y-97969650D01*
G75*
G02*
X121477750Y-98213400I-243750J0D01*
G01*
X120990250Y-98213400D01*
G75*
G02*
X120746500Y-97969650I0J243750D01*
G01*
G37*
%TD*%
%TO.C,C6*%
G36*
G01*
X132770700Y-99743950D02*
X132770700Y-100306450D01*
G75*
G02*
X132526950Y-100550200I-243750J0D01*
G01*
X132039450Y-100550200D01*
G75*
G02*
X131795700Y-100306450I0J243750D01*
G01*
X131795700Y-99743950D01*
G75*
G02*
X132039450Y-99500200I243750J0D01*
G01*
X132526950Y-99500200D01*
G75*
G02*
X132770700Y-99743950I0J-243750D01*
G01*
G37*
G36*
G01*
X134345700Y-99743950D02*
X134345700Y-100306450D01*
G75*
G02*
X134101950Y-100550200I-243750J0D01*
G01*
X133614450Y-100550200D01*
G75*
G02*
X133370700Y-100306450I0J243750D01*
G01*
X133370700Y-99743950D01*
G75*
G02*
X133614450Y-99500200I243750J0D01*
G01*
X134101950Y-99500200D01*
G75*
G02*
X134345700Y-99743950I0J-243750D01*
G01*
G37*
%TD*%
D13*
%TO.C,J2*%
X134797800Y-97688400D03*
%TD*%
%TO.C,L1*%
G36*
G01*
X130986450Y-101500200D02*
X130023950Y-101500200D01*
G75*
G02*
X129755200Y-101231450I0J268750D01*
G01*
X129755200Y-100693950D01*
G75*
G02*
X130023950Y-100425200I268750J0D01*
G01*
X130986450Y-100425200D01*
G75*
G02*
X131255200Y-100693950I0J-268750D01*
G01*
X131255200Y-101231450D01*
G75*
G02*
X130986450Y-101500200I-268750J0D01*
G01*
G37*
G36*
G01*
X130986450Y-99625200D02*
X130023950Y-99625200D01*
G75*
G02*
X129755200Y-99356450I0J268750D01*
G01*
X129755200Y-98818950D01*
G75*
G02*
X130023950Y-98550200I268750J0D01*
G01*
X130986450Y-98550200D01*
G75*
G02*
X131255200Y-98818950I0J-268750D01*
G01*
X131255200Y-99356450D01*
G75*
G02*
X130986450Y-99625200I-268750J0D01*
G01*
G37*
%TD*%
D17*
%TO.C,U2*%
X128778000Y-103449200D03*
X128778000Y-101549200D03*
X126778000Y-102499200D03*
%TD*%
D13*
%TO.C,J3*%
X126136400Y-104597200D03*
%TD*%
%TO.C,C8*%
G36*
G01*
X125706450Y-100969700D02*
X125143950Y-100969700D01*
G75*
G02*
X124900200Y-100725950I0J243750D01*
G01*
X124900200Y-100238450D01*
G75*
G02*
X125143950Y-99994700I243750J0D01*
G01*
X125706450Y-99994700D01*
G75*
G02*
X125950200Y-100238450I0J-243750D01*
G01*
X125950200Y-100725950D01*
G75*
G02*
X125706450Y-100969700I-243750J0D01*
G01*
G37*
G36*
G01*
X125706450Y-102544700D02*
X125143950Y-102544700D01*
G75*
G02*
X124900200Y-102300950I0J243750D01*
G01*
X124900200Y-101813450D01*
G75*
G02*
X125143950Y-101569700I243750J0D01*
G01*
X125706450Y-101569700D01*
G75*
G02*
X125950200Y-101813450I0J-243750D01*
G01*
X125950200Y-102300950D01*
G75*
G02*
X125706450Y-102544700I-243750J0D01*
G01*
G37*
%TD*%
%TO.C,C9*%
G36*
G01*
X130122350Y-102128500D02*
X130684850Y-102128500D01*
G75*
G02*
X130928600Y-102372250I0J-243750D01*
G01*
X130928600Y-102859750D01*
G75*
G02*
X130684850Y-103103500I-243750J0D01*
G01*
X130122350Y-103103500D01*
G75*
G02*
X129878600Y-102859750I0J243750D01*
G01*
X129878600Y-102372250D01*
G75*
G02*
X130122350Y-102128500I243750J0D01*
G01*
G37*
G36*
G01*
X130122350Y-103703500D02*
X130684850Y-103703500D01*
G75*
G02*
X130928600Y-103947250I0J-243750D01*
G01*
X130928600Y-104434750D01*
G75*
G02*
X130684850Y-104678500I-243750J0D01*
G01*
X130122350Y-104678500D01*
G75*
G02*
X129878600Y-104434750I0J243750D01*
G01*
X129878600Y-103947250D01*
G75*
G02*
X130122350Y-103703500I243750J0D01*
G01*
G37*
%TD*%
%TO.C,D2*%
X123748800Y-102158800D03*
X123748800Y-104658800D03*
%TD*%
D18*
X128524000Y-92964000D03*
X129794000Y-92202000D03*
X130556000Y-93472000D03*
X123825000Y-99314000D03*
X121818400Y-104013000D03*
X121818400Y-101854000D03*
X119837200Y-96266000D03*
X134874000Y-99212400D03*
X128981200Y-104597200D03*
X134823200Y-100990400D03*
X122936000Y-100584000D03*
X126746000Y-100330000D03*
X131318000Y-95504000D03*
X127254000Y-92202000D03*
X125666500Y-92583000D03*
X124968000Y-93980000D03*
X123952000Y-92964000D03*
X121920000Y-92964000D03*
X122936000Y-93980000D03*
X123952000Y-94996000D03*
X121920000Y-94996000D03*
X132588000Y-96266000D03*
X122936000Y-96012000D03*
X126873000Y-93472000D03*
X124968000Y-96012000D03*
M02*
