M48
; DRILL file {KiCad (5.1.6-0-10_14)} date Monday, June 15, 2020 at 02:29:19 PM
; FORMAT={-:-/ absolute / inch / decimal}
; #@! TF.CreationDate,2020-06-15T14:29:19-04:00
; #@! TF.GenerationSoftware,Kicad,Pcbnew,(5.1.6-0-10_14)
; #@! TF.FileFunction,Plated,1,2,PTH
FMAT,2
INCH
T1C0.0157
T2C0.0890
%
G90
G05
T1
X4.718Y-3.79
X4.796Y-4.01
X4.796Y-4.095
X4.8Y-3.66
X4.8Y-3.74
X4.84Y-3.7
X4.84Y-3.78
X4.84Y-3.96
X4.875Y-3.91
X4.88Y-3.66
X4.88Y-3.74
X4.92Y-3.7
X4.92Y-3.78
X4.9475Y-3.645
X4.99Y-3.95
X4.995Y-3.68
X5.01Y-3.63
X5.06Y-3.66
X5.078Y-4.118
X5.11Y-3.63
X5.14Y-3.68
X5.17Y-3.76
X5.22Y-3.79
X5.308Y-3.976
X5.31Y-3.906
T2
X4.684Y-4.059
X4.684Y-3.684
X5.247Y-3.684
X5.247Y-4.059
T0
M30
