%TF.GenerationSoftware,KiCad,Pcbnew,(5.1.6-0-10_14)*%
%TF.CreationDate,2020-06-15T14:29:28-04:00*%
%TF.ProjectId,preamp,70726561-6d70-42e6-9b69-6361645f7063,rev?*%
%TF.SameCoordinates,Original*%
%TF.FileFunction,Copper,L2,Bot*%
%TF.FilePolarity,Positive*%
%FSLAX46Y46*%
G04 Gerber Fmt 4.6, Leading zero omitted, Abs format (unit mm)*
G04 Created by KiCad (PCBNEW (5.1.6-0-10_14)) date 2020-06-15 14:29:28*
%MOMM*%
%LPD*%
G01*
G04 APERTURE LIST*
%TA.AperFunction,ViaPad*%
%ADD10C,3.810000*%
%TD*%
%TA.AperFunction,ViaPad*%
%ADD11C,0.800000*%
%TD*%
%TA.AperFunction,Conductor*%
%ADD12C,0.254000*%
%TD*%
G04 APERTURE END LIST*
D10*
%TO.N,GND*%
%TO.C,REF\u002A\u002A*%
X118973600Y-93573600D03*
%TD*%
%TO.N,GND*%
%TO.C,REF\u002A\u002A*%
X133273800Y-93573600D03*
%TD*%
%TO.N,GND*%
%TO.C,REF\u002A\u002A*%
X118973600Y-103098600D03*
%TD*%
%TO.N,GND*%
%TO.C,REF\u002A\u002A*%
X133273800Y-103098600D03*
%TD*%
D11*
%TO.N,GND*%
X128524000Y-92964000D03*
X129794000Y-92202000D03*
X130556000Y-93472000D03*
X123825000Y-99314000D03*
X121818400Y-104013000D03*
X121818400Y-101854000D03*
X119837200Y-96266000D03*
X134874000Y-99212400D03*
X128981200Y-104597200D03*
X134823200Y-100990400D03*
X122936000Y-100584000D03*
X126746000Y-100330000D03*
X131318000Y-95504000D03*
X127254000Y-92202000D03*
X125666500Y-92583000D03*
X124968000Y-93980000D03*
X123952000Y-92964000D03*
X121920000Y-92964000D03*
X122936000Y-93980000D03*
X123952000Y-94996000D03*
X121920000Y-94996000D03*
X132588000Y-96266000D03*
X122936000Y-96012000D03*
X126873000Y-93472000D03*
X124968000Y-96012000D03*
%TD*%
D12*
%TO.N,GND*%
G36*
X132414255Y-91965505D02*
G01*
X132117047Y-92164093D01*
X131864293Y-92416847D01*
X131665705Y-92714055D01*
X131528915Y-93044295D01*
X131459180Y-93394876D01*
X131459180Y-93752324D01*
X131528915Y-94102905D01*
X131665705Y-94433145D01*
X131864293Y-94730353D01*
X132117047Y-94983107D01*
X132414255Y-95181695D01*
X132744495Y-95318485D01*
X133095076Y-95388220D01*
X133452524Y-95388220D01*
X133803105Y-95318485D01*
X134133345Y-95181695D01*
X134430553Y-94983107D01*
X134683307Y-94730353D01*
X134881895Y-94433145D01*
X135001401Y-94144632D01*
X135001400Y-102527565D01*
X134881895Y-102239055D01*
X134683307Y-101941847D01*
X134430553Y-101689093D01*
X134133345Y-101490505D01*
X133803105Y-101353715D01*
X133452524Y-101283980D01*
X133095076Y-101283980D01*
X132744495Y-101353715D01*
X132414255Y-101490505D01*
X132117047Y-101689093D01*
X131864293Y-101941847D01*
X131665705Y-102239055D01*
X131528915Y-102569295D01*
X131459180Y-102919876D01*
X131459180Y-103277324D01*
X131528915Y-103627905D01*
X131665705Y-103958145D01*
X131864293Y-104255353D01*
X132117047Y-104508107D01*
X132414255Y-104706695D01*
X132702765Y-104826200D01*
X119544635Y-104826200D01*
X119833145Y-104706695D01*
X120130353Y-104508107D01*
X120383107Y-104255353D01*
X120581695Y-103958145D01*
X120718485Y-103627905D01*
X120788220Y-103277324D01*
X120788220Y-102919876D01*
X120718485Y-102569295D01*
X120581695Y-102239055D01*
X120383107Y-101941847D01*
X120130353Y-101689093D01*
X119833145Y-101490505D01*
X119502905Y-101353715D01*
X119152324Y-101283980D01*
X118794876Y-101283980D01*
X118444295Y-101353715D01*
X118114055Y-101490505D01*
X117816847Y-101689093D01*
X117564093Y-101941847D01*
X117365505Y-102239055D01*
X117246000Y-102527565D01*
X117246000Y-94144635D01*
X117365505Y-94433145D01*
X117564093Y-94730353D01*
X117816847Y-94983107D01*
X118114055Y-95181695D01*
X118444295Y-95318485D01*
X118794876Y-95388220D01*
X119152324Y-95388220D01*
X119502905Y-95318485D01*
X119833145Y-95181695D01*
X120130353Y-94983107D01*
X120383107Y-94730353D01*
X120581695Y-94433145D01*
X120718485Y-94102905D01*
X120788220Y-93752324D01*
X120788220Y-93394876D01*
X120718485Y-93044295D01*
X120581695Y-92714055D01*
X120383107Y-92416847D01*
X120130353Y-92164093D01*
X119833145Y-91965505D01*
X119544635Y-91846000D01*
X132702765Y-91846000D01*
X132414255Y-91965505D01*
G37*
X132414255Y-91965505D02*
X132117047Y-92164093D01*
X131864293Y-92416847D01*
X131665705Y-92714055D01*
X131528915Y-93044295D01*
X131459180Y-93394876D01*
X131459180Y-93752324D01*
X131528915Y-94102905D01*
X131665705Y-94433145D01*
X131864293Y-94730353D01*
X132117047Y-94983107D01*
X132414255Y-95181695D01*
X132744495Y-95318485D01*
X133095076Y-95388220D01*
X133452524Y-95388220D01*
X133803105Y-95318485D01*
X134133345Y-95181695D01*
X134430553Y-94983107D01*
X134683307Y-94730353D01*
X134881895Y-94433145D01*
X135001401Y-94144632D01*
X135001400Y-102527565D01*
X134881895Y-102239055D01*
X134683307Y-101941847D01*
X134430553Y-101689093D01*
X134133345Y-101490505D01*
X133803105Y-101353715D01*
X133452524Y-101283980D01*
X133095076Y-101283980D01*
X132744495Y-101353715D01*
X132414255Y-101490505D01*
X132117047Y-101689093D01*
X131864293Y-101941847D01*
X131665705Y-102239055D01*
X131528915Y-102569295D01*
X131459180Y-102919876D01*
X131459180Y-103277324D01*
X131528915Y-103627905D01*
X131665705Y-103958145D01*
X131864293Y-104255353D01*
X132117047Y-104508107D01*
X132414255Y-104706695D01*
X132702765Y-104826200D01*
X119544635Y-104826200D01*
X119833145Y-104706695D01*
X120130353Y-104508107D01*
X120383107Y-104255353D01*
X120581695Y-103958145D01*
X120718485Y-103627905D01*
X120788220Y-103277324D01*
X120788220Y-102919876D01*
X120718485Y-102569295D01*
X120581695Y-102239055D01*
X120383107Y-101941847D01*
X120130353Y-101689093D01*
X119833145Y-101490505D01*
X119502905Y-101353715D01*
X119152324Y-101283980D01*
X118794876Y-101283980D01*
X118444295Y-101353715D01*
X118114055Y-101490505D01*
X117816847Y-101689093D01*
X117564093Y-101941847D01*
X117365505Y-102239055D01*
X117246000Y-102527565D01*
X117246000Y-94144635D01*
X117365505Y-94433145D01*
X117564093Y-94730353D01*
X117816847Y-94983107D01*
X118114055Y-95181695D01*
X118444295Y-95318485D01*
X118794876Y-95388220D01*
X119152324Y-95388220D01*
X119502905Y-95318485D01*
X119833145Y-95181695D01*
X120130353Y-94983107D01*
X120383107Y-94730353D01*
X120581695Y-94433145D01*
X120718485Y-94102905D01*
X120788220Y-93752324D01*
X120788220Y-93394876D01*
X120718485Y-93044295D01*
X120581695Y-92714055D01*
X120383107Y-92416847D01*
X120130353Y-92164093D01*
X119833145Y-91965505D01*
X119544635Y-91846000D01*
X132702765Y-91846000D01*
X132414255Y-91965505D01*
G36*
X133406518Y-102661087D02*
G01*
X133489323Y-102695386D01*
X133563845Y-102745180D01*
X133627220Y-102808555D01*
X133677014Y-102883077D01*
X133711313Y-102965882D01*
X133728798Y-103053787D01*
X133728798Y-103143413D01*
X133711313Y-103231318D01*
X133677014Y-103314123D01*
X133627220Y-103388645D01*
X133563845Y-103452020D01*
X133489323Y-103501814D01*
X133406518Y-103536113D01*
X133318613Y-103553598D01*
X133228987Y-103553598D01*
X133141082Y-103536113D01*
X133058277Y-103501814D01*
X132983755Y-103452020D01*
X132920380Y-103388645D01*
X132870586Y-103314123D01*
X132836287Y-103231318D01*
X132818802Y-103143413D01*
X132818802Y-103053787D01*
X132836287Y-102965882D01*
X132870586Y-102883077D01*
X132920380Y-102808555D01*
X132983755Y-102745180D01*
X133058277Y-102695386D01*
X133141082Y-102661087D01*
X133228987Y-102643602D01*
X133318613Y-102643602D01*
X133406518Y-102661087D01*
G37*
X133406518Y-102661087D02*
X133489323Y-102695386D01*
X133563845Y-102745180D01*
X133627220Y-102808555D01*
X133677014Y-102883077D01*
X133711313Y-102965882D01*
X133728798Y-103053787D01*
X133728798Y-103143413D01*
X133711313Y-103231318D01*
X133677014Y-103314123D01*
X133627220Y-103388645D01*
X133563845Y-103452020D01*
X133489323Y-103501814D01*
X133406518Y-103536113D01*
X133318613Y-103553598D01*
X133228987Y-103553598D01*
X133141082Y-103536113D01*
X133058277Y-103501814D01*
X132983755Y-103452020D01*
X132920380Y-103388645D01*
X132870586Y-103314123D01*
X132836287Y-103231318D01*
X132818802Y-103143413D01*
X132818802Y-103053787D01*
X132836287Y-102965882D01*
X132870586Y-102883077D01*
X132920380Y-102808555D01*
X132983755Y-102745180D01*
X133058277Y-102695386D01*
X133141082Y-102661087D01*
X133228987Y-102643602D01*
X133318613Y-102643602D01*
X133406518Y-102661087D01*
G36*
X119106318Y-102661087D02*
G01*
X119189123Y-102695386D01*
X119263645Y-102745180D01*
X119327020Y-102808555D01*
X119376814Y-102883077D01*
X119411113Y-102965882D01*
X119428598Y-103053787D01*
X119428598Y-103143413D01*
X119411113Y-103231318D01*
X119376814Y-103314123D01*
X119327020Y-103388645D01*
X119263645Y-103452020D01*
X119189123Y-103501814D01*
X119106318Y-103536113D01*
X119018413Y-103553598D01*
X118928787Y-103553598D01*
X118840882Y-103536113D01*
X118758077Y-103501814D01*
X118683555Y-103452020D01*
X118620180Y-103388645D01*
X118570386Y-103314123D01*
X118536087Y-103231318D01*
X118518602Y-103143413D01*
X118518602Y-103053787D01*
X118536087Y-102965882D01*
X118570386Y-102883077D01*
X118620180Y-102808555D01*
X118683555Y-102745180D01*
X118758077Y-102695386D01*
X118840882Y-102661087D01*
X118928787Y-102643602D01*
X119018413Y-102643602D01*
X119106318Y-102661087D01*
G37*
X119106318Y-102661087D02*
X119189123Y-102695386D01*
X119263645Y-102745180D01*
X119327020Y-102808555D01*
X119376814Y-102883077D01*
X119411113Y-102965882D01*
X119428598Y-103053787D01*
X119428598Y-103143413D01*
X119411113Y-103231318D01*
X119376814Y-103314123D01*
X119327020Y-103388645D01*
X119263645Y-103452020D01*
X119189123Y-103501814D01*
X119106318Y-103536113D01*
X119018413Y-103553598D01*
X118928787Y-103553598D01*
X118840882Y-103536113D01*
X118758077Y-103501814D01*
X118683555Y-103452020D01*
X118620180Y-103388645D01*
X118570386Y-103314123D01*
X118536087Y-103231318D01*
X118518602Y-103143413D01*
X118518602Y-103053787D01*
X118536087Y-102965882D01*
X118570386Y-102883077D01*
X118620180Y-102808555D01*
X118683555Y-102745180D01*
X118758077Y-102695386D01*
X118840882Y-102661087D01*
X118928787Y-102643602D01*
X119018413Y-102643602D01*
X119106318Y-102661087D01*
G36*
X119106318Y-93136087D02*
G01*
X119189123Y-93170386D01*
X119263645Y-93220180D01*
X119327020Y-93283555D01*
X119376814Y-93358077D01*
X119411113Y-93440882D01*
X119428598Y-93528787D01*
X119428598Y-93618413D01*
X119411113Y-93706318D01*
X119376814Y-93789123D01*
X119327020Y-93863645D01*
X119263645Y-93927020D01*
X119189123Y-93976814D01*
X119106318Y-94011113D01*
X119018413Y-94028598D01*
X118928787Y-94028598D01*
X118840882Y-94011113D01*
X118758077Y-93976814D01*
X118683555Y-93927020D01*
X118620180Y-93863645D01*
X118570386Y-93789123D01*
X118536087Y-93706318D01*
X118518602Y-93618413D01*
X118518602Y-93528787D01*
X118536087Y-93440882D01*
X118570386Y-93358077D01*
X118620180Y-93283555D01*
X118683555Y-93220180D01*
X118758077Y-93170386D01*
X118840882Y-93136087D01*
X118928787Y-93118602D01*
X119018413Y-93118602D01*
X119106318Y-93136087D01*
G37*
X119106318Y-93136087D02*
X119189123Y-93170386D01*
X119263645Y-93220180D01*
X119327020Y-93283555D01*
X119376814Y-93358077D01*
X119411113Y-93440882D01*
X119428598Y-93528787D01*
X119428598Y-93618413D01*
X119411113Y-93706318D01*
X119376814Y-93789123D01*
X119327020Y-93863645D01*
X119263645Y-93927020D01*
X119189123Y-93976814D01*
X119106318Y-94011113D01*
X119018413Y-94028598D01*
X118928787Y-94028598D01*
X118840882Y-94011113D01*
X118758077Y-93976814D01*
X118683555Y-93927020D01*
X118620180Y-93863645D01*
X118570386Y-93789123D01*
X118536087Y-93706318D01*
X118518602Y-93618413D01*
X118518602Y-93528787D01*
X118536087Y-93440882D01*
X118570386Y-93358077D01*
X118620180Y-93283555D01*
X118683555Y-93220180D01*
X118758077Y-93170386D01*
X118840882Y-93136087D01*
X118928787Y-93118602D01*
X119018413Y-93118602D01*
X119106318Y-93136087D01*
G36*
X133406518Y-93136087D02*
G01*
X133489323Y-93170386D01*
X133563845Y-93220180D01*
X133627220Y-93283555D01*
X133677014Y-93358077D01*
X133711313Y-93440882D01*
X133728798Y-93528787D01*
X133728798Y-93618413D01*
X133711313Y-93706318D01*
X133677014Y-93789123D01*
X133627220Y-93863645D01*
X133563845Y-93927020D01*
X133489323Y-93976814D01*
X133406518Y-94011113D01*
X133318613Y-94028598D01*
X133228987Y-94028598D01*
X133141082Y-94011113D01*
X133058277Y-93976814D01*
X132983755Y-93927020D01*
X132920380Y-93863645D01*
X132870586Y-93789123D01*
X132836287Y-93706318D01*
X132818802Y-93618413D01*
X132818802Y-93528787D01*
X132836287Y-93440882D01*
X132870586Y-93358077D01*
X132920380Y-93283555D01*
X132983755Y-93220180D01*
X133058277Y-93170386D01*
X133141082Y-93136087D01*
X133228987Y-93118602D01*
X133318613Y-93118602D01*
X133406518Y-93136087D01*
G37*
X133406518Y-93136087D02*
X133489323Y-93170386D01*
X133563845Y-93220180D01*
X133627220Y-93283555D01*
X133677014Y-93358077D01*
X133711313Y-93440882D01*
X133728798Y-93528787D01*
X133728798Y-93618413D01*
X133711313Y-93706318D01*
X133677014Y-93789123D01*
X133627220Y-93863645D01*
X133563845Y-93927020D01*
X133489323Y-93976814D01*
X133406518Y-94011113D01*
X133318613Y-94028598D01*
X133228987Y-94028598D01*
X133141082Y-94011113D01*
X133058277Y-93976814D01*
X132983755Y-93927020D01*
X132920380Y-93863645D01*
X132870586Y-93789123D01*
X132836287Y-93706318D01*
X132818802Y-93618413D01*
X132818802Y-93528787D01*
X132836287Y-93440882D01*
X132870586Y-93358077D01*
X132920380Y-93283555D01*
X132983755Y-93220180D01*
X133058277Y-93170386D01*
X133141082Y-93136087D01*
X133228987Y-93118602D01*
X133318613Y-93118602D01*
X133406518Y-93136087D01*
%TD*%
M02*
